<svg xmlns="http://www.w3.org/2000/svg" viewBox="0 0 118.59 28.35"><defs><style>.cls-1{fill:#ff8142;}</style></defs><title>Fichier 1</title><g id="Calque_2" data-name="Calque 2"><g id="Calque_1-2" data-name="Calque 1"><path class="cls-1" d="M104.14,2.49c0-1.93.45-2.49,2-2.49h1.36c1.59,0,2.06.56,2.06,2.49V19.65c0,2.64.4,3.26,2.7,3.26h4.26c1.57,0,2,.55,2,2.44v.34c0,1.9-.44,2.46-2,2.53s-3.23.13-4.17.13c-4.31,0-8.26-.31-8.26-7.16Z"/><path class="cls-1" d="M12.5,11.29c1.58,0,2,.55,2,2.44v.42c0,1.9-.46,2.44-2,2.44h-7v3.08c0,2.64.41,3.25,2.74,3.25h4.69c1.58,0,2,.55,2,2.42v.33c0,1.9-.44,2.46-2,2.53s-3.54.15-4.58.15C4,28.35,0,28,0,21.21V7.1C0,.27,4,0,8.34,0c1.18,0,3,.05,4.58.11s2,.63,2,2.53V3c0,1.89-.45,2.42-2,2.42H8.24C5.91,5.41,5.5,6,5.5,8.64v2.65Z"/><path class="cls-1" d="M38.43,26.19a3.06,3.06,0,0,1,.43,1.29c0,.59-.46.87-1.42.87H35.27c-1.8,0-2.25-.31-3.2-2.13l-3.55-6.83-3.44,6.82c-.92,1.82-1.39,2.14-3.17,2.14H20c-.94,0-1.41-.28-1.41-.87A3,3,0,0,1,19,26.19l6.59-12.26L19.26,2.15A3.06,3.06,0,0,1,18.82.86c0-.58.47-.86,1.42-.86h2.13c1.78,0,2.25.32,3.18,2.13l3.2,6.28L32,2.13C33,.3,33.41,0,35.21,0H37c1,0,1.43.28,1.43.86A3.06,3.06,0,0,1,38,2.15L31.72,13.77Z"/><path class="cls-1" d="M59.18,14.17c0,10.06-2.1,14.18-9.39,14.18s-9.41-4.12-9.41-14.18S42.48,0,49.79,0,59.18,4.11,59.18,14.17Zm-13.29,0c0,5.24.07,8.76,3.9,8.76s3.88-3.52,3.88-8.76-.06-8.78-3.88-8.78S45.89,9,45.89,14.17Z"/><path class="cls-1" d="M63.36,3.29c0-2,.4-2.6,2-2.86A39.24,39.24,0,0,1,71.16,0c5.31,0,9.54,1.25,9.54,9.09,0,7.58-3.83,9.21-9.31,9.21-.84,0-1.81,0-2.55-.09v7.67c0,1.91-.45,2.47-2.07,2.47H65.43c-1.61,0-2.07-.56-2.07-2.47ZM71.28,5.2a15.61,15.61,0,0,0-2.44.19V13a15.49,15.49,0,0,0,2.36.13c2.6,0,4.06-.82,4.06-4C75.26,6.3,74.33,5.2,71.28,5.2Z"/><path class="cls-1" d="M87.53,4.52C88.46,1.3,89.76,0,91.74,0s3.31,1.45,4.18,4.52L102,26a4.27,4.27,0,0,1,.19,1.15c0,.87-.5,1.21-1.61,1.21H98.9c-1.69,0-2.17-.44-2.65-2.38l-1-4H87.91l-1,4c-.47,1.94-1,2.38-2.63,2.38H82.78c-1.11,0-1.62-.34-1.62-1.2A4.2,4.2,0,0,1,81.37,26Zm1.58,12.34H94L91.52,7Z"/></g></g></svg>